<mxfile host="app.diagrams.net" agent="Mozilla/5.0 (Windows NT 10.0; Win64; x64) AppleWebKit/537.36 (KHTML, like Gecko) Chrome/127.0.0.0 Safari/537.36" version="24.7.6">
  <diagram name="Venta" id="uZIWuDig2zUaR7RfT_NO">
    <mxGraphModel dx="880" dy="426" grid="1" gridSize="10" guides="1" tooltips="1" connect="1" arrows="1" fold="1" page="1" pageScale="1" pageWidth="827" pageHeight="1169" math="0" shadow="0">
      <root>
        <mxCell id="0" />
        <mxCell id="1" parent="0" />
        <mxCell id="lSOLlbwHumyx7aa0wNRr-1" value="Flujo de Ventas de Artículos de Natación" style="shape=table;childLayout=tableLayout;startSize=40;collapsible=0;recursiveResize=0;expand=0;fontSize=16;fontStyle=1" vertex="1" parent="1">
          <mxGeometry x="110" y="20" width="630" height="400" as="geometry" />
        </mxCell>
        <mxCell id="lSOLlbwHumyx7aa0wNRr-2" value="Comprador" style="shape=tableRow;horizontal=0;swimlaneHead=0;swimlaneBody=0;top=0;left=0;strokeColor=inherit;bottom=0;right=0;dropTarget=0;fontStyle=1;fillColor=none;points=[[0,0.5],[1,0.5]];portConstraint=eastwest;startSize=40;collapsible=0;recursiveResize=0;expand=0;fontSize=16;" vertex="1" parent="lSOLlbwHumyx7aa0wNRr-1">
          <mxGeometry y="40" width="630" height="180" as="geometry" />
        </mxCell>
        <mxCell id="lSOLlbwHumyx7aa0wNRr-3" value="Estado Inicial" style="swimlane;swimlaneHead=0;swimlaneBody=0;fontStyle=1;strokeColor=inherit;connectable=0;fillColor=none;startSize=40;collapsible=0;recursiveResize=0;expand=0;fontSize=16;" vertex="1" parent="lSOLlbwHumyx7aa0wNRr-2">
          <mxGeometry x="40" width="181" height="180" as="geometry">
            <mxRectangle width="181" height="180" as="alternateBounds" />
          </mxGeometry>
        </mxCell>
        <mxCell id="lSOLlbwHumyx7aa0wNRr-16" value="" style="points=[[0.145,0.145,0],[0.5,0,0],[0.855,0.145,0],[1,0.5,0],[0.855,0.855,0],[0.5,1,0],[0.145,0.855,0],[0,0.5,0]];shape=mxgraph.bpmn.event;html=1;verticalLabelPosition=bottom;labelBackgroundColor=#ffffff;verticalAlign=top;align=center;perimeter=ellipsePerimeter;outlineConnect=0;aspect=fixed;outline=standard;symbol=general;" vertex="1" parent="lSOLlbwHumyx7aa0wNRr-3">
          <mxGeometry x="10" y="50" width="30" height="30" as="geometry" />
        </mxCell>
        <mxCell id="lSOLlbwHumyx7aa0wNRr-17" value="Consulta por artí&lt;span style=&quot;background-color: initial;&quot;&gt;culo&lt;/span&gt;" style="rounded=1;whiteSpace=wrap;html=1;container=1;collapsible=0;absoluteArcSize=1;arcSize=20;childLayout=stackLayout;horizontal=1;horizontalStack=0;resizeParent=1;resizeParentMax=0;resizeLast=0;" vertex="1" parent="lSOLlbwHumyx7aa0wNRr-3">
          <mxGeometry x="60" y="70" width="100" height="70" as="geometry" />
        </mxCell>
        <mxCell id="lSOLlbwHumyx7aa0wNRr-20" style="edgeStyle=orthogonalEdgeStyle;rounded=0;orthogonalLoop=1;jettySize=auto;html=1;entryX=-0.04;entryY=0.643;entryDx=0;entryDy=0;entryPerimeter=0;exitX=0.5;exitY=1;exitDx=0;exitDy=0;exitPerimeter=0;" edge="1" parent="lSOLlbwHumyx7aa0wNRr-3" source="lSOLlbwHumyx7aa0wNRr-16" target="lSOLlbwHumyx7aa0wNRr-17">
          <mxGeometry relative="1" as="geometry" />
        </mxCell>
        <mxCell id="lSOLlbwHumyx7aa0wNRr-4" value="Estado Intermedio" style="swimlane;swimlaneHead=0;swimlaneBody=0;fontStyle=1;strokeColor=inherit;connectable=0;fillColor=none;startSize=40;collapsible=0;recursiveResize=0;expand=0;fontSize=16;" vertex="1" parent="lSOLlbwHumyx7aa0wNRr-2">
          <mxGeometry x="221" width="180" height="180" as="geometry">
            <mxRectangle width="180" height="180" as="alternateBounds" />
          </mxGeometry>
        </mxCell>
        <mxCell id="lSOLlbwHumyx7aa0wNRr-5" value="Estado Final" style="swimlane;swimlaneHead=0;swimlaneBody=0;fontStyle=1;strokeColor=inherit;connectable=0;fillColor=none;startSize=40;collapsible=0;recursiveResize=0;expand=0;fontSize=16;" vertex="1" parent="lSOLlbwHumyx7aa0wNRr-2">
          <mxGeometry x="401" width="229" height="180" as="geometry">
            <mxRectangle width="229" height="180" as="alternateBounds" />
          </mxGeometry>
        </mxCell>
        <mxCell id="lSOLlbwHumyx7aa0wNRr-15" value="" style="points=[[0.145,0.145,0],[0.5,0,0],[0.855,0.145,0],[1,0.5,0],[0.855,0.855,0],[0.5,1,0],[0.145,0.855,0],[0,0.5,0]];shape=mxgraph.bpmn.event;html=1;verticalLabelPosition=bottom;labelBackgroundColor=#ffffff;verticalAlign=top;align=center;perimeter=ellipsePerimeter;outlineConnect=0;aspect=fixed;outline=end;symbol=terminate2;" vertex="1" parent="lSOLlbwHumyx7aa0wNRr-5">
          <mxGeometry x="139" y="70" width="50" height="50" as="geometry" />
        </mxCell>
        <mxCell id="lSOLlbwHumyx7aa0wNRr-6" value="Vendedor" style="shape=tableRow;horizontal=0;swimlaneHead=0;swimlaneBody=0;top=0;left=0;strokeColor=inherit;bottom=0;right=0;dropTarget=0;fontStyle=1;fillColor=none;points=[[0,0.5],[1,0.5]];portConstraint=eastwest;startSize=40;collapsible=0;recursiveResize=0;expand=0;fontSize=16;" vertex="1" parent="lSOLlbwHumyx7aa0wNRr-1">
          <mxGeometry y="220" width="630" height="180" as="geometry" />
        </mxCell>
        <mxCell id="lSOLlbwHumyx7aa0wNRr-7" value="" style="swimlane;swimlaneHead=0;swimlaneBody=0;fontStyle=1;connectable=0;strokeColor=inherit;fillColor=none;startSize=0;collapsible=0;recursiveResize=0;expand=0;fontSize=16;" vertex="1" parent="lSOLlbwHumyx7aa0wNRr-6">
          <mxGeometry x="40" width="181" height="180" as="geometry">
            <mxRectangle width="181" height="180" as="alternateBounds" />
          </mxGeometry>
        </mxCell>
        <mxCell id="lSOLlbwHumyx7aa0wNRr-26" style="edgeStyle=orthogonalEdgeStyle;rounded=0;orthogonalLoop=1;jettySize=auto;html=1;exitX=0.4;exitY=1.014;exitDx=0;exitDy=0;exitPerimeter=0;" edge="1" parent="lSOLlbwHumyx7aa0wNRr-7" source="lSOLlbwHumyx7aa0wNRr-25" target="lSOLlbwHumyx7aa0wNRr-18">
          <mxGeometry relative="1" as="geometry" />
        </mxCell>
        <mxCell id="lSOLlbwHumyx7aa0wNRr-25" value="Validar Stock" style="rounded=1;whiteSpace=wrap;html=1;container=1;collapsible=0;absoluteArcSize=1;arcSize=20;childLayout=stackLayout;horizontal=1;horizontalStack=0;resizeParent=1;resizeParentMax=0;resizeLast=0;" vertex="1" parent="lSOLlbwHumyx7aa0wNRr-7">
          <mxGeometry x="30" y="20" width="100" height="70" as="geometry" />
        </mxCell>
        <mxCell id="lSOLlbwHumyx7aa0wNRr-18" value="Disponibilidad" style="points=[[0.25,0.25,0],[0.5,0,0],[0.75,0.25,0],[1,0.5,0],[0.75,0.75,0],[0.5,1,0],[0.25,0.75,0],[0,0.5,0]];shape=mxgraph.bpmn.gateway2;html=1;verticalLabelPosition=bottom;labelBackgroundColor=#ffffff;verticalAlign=top;align=center;perimeter=rhombusPerimeter;outlineConnect=0;outline=none;symbol=none;" vertex="1" parent="lSOLlbwHumyx7aa0wNRr-7">
          <mxGeometry x="140" y="90" width="50" height="50" as="geometry" />
        </mxCell>
        <mxCell id="lSOLlbwHumyx7aa0wNRr-8" value="" style="swimlane;swimlaneHead=0;swimlaneBody=0;fontStyle=1;connectable=0;strokeColor=inherit;fillColor=none;startSize=0;collapsible=0;recursiveResize=0;expand=0;fontSize=16;" vertex="1" parent="lSOLlbwHumyx7aa0wNRr-6">
          <mxGeometry x="221" width="180" height="180" as="geometry">
            <mxRectangle width="180" height="180" as="alternateBounds" />
          </mxGeometry>
        </mxCell>
        <mxCell id="lSOLlbwHumyx7aa0wNRr-27" value="Validar Stock" style="rounded=1;whiteSpace=wrap;html=1;container=1;collapsible=0;absoluteArcSize=1;arcSize=20;childLayout=stackLayout;horizontal=1;horizontalStack=0;resizeParent=1;resizeParentMax=0;resizeLast=0;" vertex="1" parent="lSOLlbwHumyx7aa0wNRr-8">
          <mxGeometry x="9" y="20" width="100" height="70" as="geometry" />
        </mxCell>
        <mxCell id="lSOLlbwHumyx7aa0wNRr-9" value="" style="swimlane;swimlaneHead=0;swimlaneBody=0;fontStyle=1;connectable=0;strokeColor=inherit;fillColor=none;startSize=0;collapsible=0;recursiveResize=0;expand=0;fontSize=16;" vertex="1" parent="lSOLlbwHumyx7aa0wNRr-6">
          <mxGeometry x="401" width="229" height="180" as="geometry">
            <mxRectangle width="229" height="180" as="alternateBounds" />
          </mxGeometry>
        </mxCell>
        <mxCell id="lSOLlbwHumyx7aa0wNRr-14" value="" style="points=[[0.145,0.145,0],[0.5,0,0],[0.855,0.145,0],[1,0.5,0],[0.855,0.855,0],[0.5,1,0],[0.145,0.855,0],[0,0.5,0]];shape=mxgraph.bpmn.event;html=1;verticalLabelPosition=bottom;labelBackgroundColor=#ffffff;verticalAlign=top;align=center;perimeter=ellipsePerimeter;outlineConnect=0;aspect=fixed;outline=end;symbol=terminate;" vertex="1" parent="lSOLlbwHumyx7aa0wNRr-9">
          <mxGeometry x="139" y="65" width="50" height="50" as="geometry" />
        </mxCell>
        <mxCell id="lSOLlbwHumyx7aa0wNRr-19" style="edgeStyle=orthogonalEdgeStyle;rounded=0;orthogonalLoop=1;jettySize=auto;html=1;" edge="1" parent="lSOLlbwHumyx7aa0wNRr-1" source="lSOLlbwHumyx7aa0wNRr-17" target="lSOLlbwHumyx7aa0wNRr-25">
          <mxGeometry relative="1" as="geometry" />
        </mxCell>
      </root>
    </mxGraphModel>
  </diagram>
</mxfile>
